{"title":"The.Dilemma.2011.PPVRIP-IFLIX","uid":6305567,"size":1410418621,"categoryP":"video","categoryS":"movies","magnet":"?xt=urn:btih:670a09221070a2238e7f04c3c317194a1e94ecf0&amp;dn=The.Dilemma.2011.PPVRIP-IFLIX&amp;tr=udp%3A%2F%2Ftracker.openbittorrent.com%3A80&amp;tr=udp%3A%2F%2Fopen.demonii.com%3A1337&amp;tr=udp%3A%2F%2Ftracker.coppersurfer.tk%3A6969&amp;tr=udp%3A%2F%2Fexodus.desync.com%3A6969","seeders":0,"leechers":0,"uploader":"razvanripper","files":-1,"time":1302316930,"description":"The.Dilemma.2011.PPVRIP-IFLIX\n\n\niMDB : http://www.imdb.com/title/tt1578275/\nLanguage : English\nFormat : AVI\nFormat/Info : Audio Video Interleave\nFormat profile : OpenDML\nFile size : 1.31 GiB\nDuration : 1h 50mn\nOverall bit rate : 1 696 Kbps\n\n\nVideo\nID : 0\nFormat : MPEG-4 Visual\nFormat profile : Simple@L3\nFormat settings, BVOP : No\nFormat settings, QPel : No\nFormat settings, GMC : No warppoints\nFormat settings, Matrix : Default (H.263)\nCodec ID : XVID\nCodec ID/Hint : XviD\nDuration : 1h 50mn\nBit rate : 1 550 Kbps\nWidth : 720 pixels\nHeight : 480 pixels\nDisplay aspect ratio : 1.500\nFrame rate : 29.970 fps\nOriginal frame rate : 29.000 fps\nStandard : NTSC\nResolution : 24 bits\nColorimetry : 4:2:0\nScan type : Progressive\nBits/(Pixel*Frame) : 0.150\nStream size : 1.20 GiB (91%)\nWriting library : XviD 1.2.1 (UTC 2008-12-04)\n\nAudio\nID : 1\nFormat : MPEG Audio\nFormat version : Version 1\nFormat profile : Layer 3\nFormat_Settings_Mode : Joint stereo / MS Stereo\nCodec ID : 55\nCodec ID/Hint : MP3\nDuration : 1h 50mn\nBit rate mode : Constant\nBit rate : 128 Kbps\nChannel(s) : 2 channels\nSampling rate : 44.1 KHz\nResolution : 16 bits\nStream size : 101 MiB (8%)\nAlignment : Aligned on interleaves\nInterleave, duration : 26 ms (0.78 video frame)\nWriting library : LAME3.98.2\n\n\nRelease notes...\n\nAnother quality release from IFLIX\nMore to come very soon!\n\nVideo source: Ours\nAudio source: Ours\n\nGreetings to all other groups out there.\nYou all do awesome work and we greatly appreciate it.\nIFLIX\n\n","torrent":{"xt":"urn:btih:670a09221070a2238e7f04c3c317194a1e94ecf0","amp;dn":"The.Dilemma.2011.PPVRIP-IFLIX","amp;tr":["udp%3A%2F%2Ftracker.openbittorrent.com%3A80","udp%3A%2F%2Fopen.demonii.com%3A1337","udp%3A%2F%2Ftracker.coppersurfer.tk%3A6969","udp%3A%2F%2Fexodus.desync.com%3A6969"],"infoHash":"670a09221070a2238e7f04c3c317194a1e94ecf0","infoHashBuffer":{"type":"Buffer","data":[103,10,9,34,16,112,162,35,142,127,4,195,195,23,25,74,30,148,236,240]},"announce":[],"urlList":[]}}